<svg width="1200" height="760" viewBox="0 0 1200 760" fill="none" xmlns="http://www.w3.org/2000/svg">
  <defs><linearGradient id="b" x1="0" y1="0" x2="1200" y2="760"><stop stop-color="#241329"/><stop offset="1" stop-color="#09070B"/></linearGradient><linearGradient id="g" x1="0" y1="0" x2="1" y2="1"><stop stop-color="#E2BA55"/><stop offset="1" stop-color="#9D54EE"/></linearGradient><filter id="s"><feDropShadow dx="0" dy="20" stdDeviation="28" flood-opacity=".55"/></filter></defs>
  <rect width="1200" height="760" fill="url(#b)"/><circle cx="938" cy="202" r="280" fill="#A855F7" fill-opacity=".1"/><circle cx="201" cy="608" r="220" fill="#D4AF37" fill-opacity=".07"/>
  <rect x="92" y="66" width="1016" height="628" rx="25" fill="#0B0B0D" stroke="#372D3E" filter="url(#s)"/><rect x="92" y="66" width="1016" height="68" rx="25" fill="#101014"/><rect x="129" y="88" width="36" height="36" rx="10" fill="url(#g)"/><text x="147" y="112" text-anchor="middle" fill="#080808" font-family="Arial" font-size="13" font-weight="700">ZJ</text><text x="178" y="112" fill="white" font-family="Arial" font-size="14" font-weight="700">Zahid Jami</text><text x="684" y="109" fill="#8F8B93" font-family="Arial" font-size="10" letter-spacing="1.6">ABOUT  WORK  SERVICES  CONTACT</text><rect x="980" y="88" width="90" height="36" rx="18" fill="#D4AF37"/><text x="1025" y="111" text-anchor="middle" fill="#080808" font-family="Arial" font-size="10" font-weight="700">LET’S TALK</text>
  <text x="142" y="228" fill="#D4AF37" font-family="Arial" font-size="10" font-weight="700" letter-spacing="3">CREATIVE DEVELOPER</text><text x="142" y="304" fill="white" font-family="Arial" font-size="55" font-weight="700">I build digital</text><text x="142" y="364" fill="white" font-family="Arial" font-size="55" font-weight="700">experiences that</text><text x="142" y="424" fill="url(#g)" font-family="Arial" font-size="55" font-weight="700">move brands forward.</text><text x="142" y="473" fill="#858189" font-family="Arial" font-size="14">Strategy, design and development for ambitious digital businesses.</text><rect x="142" y="512" width="138" height="46" rx="23" fill="#D4AF37"/><text x="211" y="540" text-anchor="middle" fill="#080808" font-family="Arial" font-size="11" font-weight="700">EXPLORE WORK →</text>
  <rect x="721" y="182" width="284" height="363" rx="29" fill="#17131B" stroke="#4D3D57"/><rect x="738" y="199" width="250" height="329" rx="22" fill="#201523"/><circle cx="863" cy="333" r="100" fill="#A855F7" fill-opacity=".1"/><circle cx="863" cy="322" r="67" fill="url(#g)" fill-opacity=".75"/><path d="M779 498C790 416 824 383 863 383C903 383 937 416 948 498H779Z" fill="#09090B"/>
  <rect x="676" y="266" width="105" height="50" rx="13" fill="#151419" stroke="#4C424F"/><text x="728" y="286" text-anchor="middle" fill="#807A84" font-family="Arial" font-size="8">EXPERIENCE</text><text x="728" y="304" text-anchor="middle" fill="#D4AF37" font-family="Arial" font-size="13" font-weight="700">4+ YEARS</text><rect x="944" y="410" width="112" height="53" rx="13" fill="#151419" stroke="#4C424F"/><text x="1000" y="431" text-anchor="middle" fill="#807A84" font-family="Arial" font-size="8">PROJECTS</text><text x="1000" y="450" text-anchor="middle" fill="#D4AF37" font-family="Arial" font-size="13" font-weight="700">50+ BUILT</text>
  <path d="M142 614H1055" stroke="#28232B"/><text x="142" y="651" fill="#6F6A73" font-family="Arial" font-size="10" letter-spacing="2">SHOPIFY</text><text x="287" y="651" fill="#6F6A73" font-family="Arial" font-size="10" letter-spacing="2">LIQUID</text><text x="414" y="651" fill="#6F6A73" font-family="Arial" font-size="10" letter-spacing="2">JAVASCRIPT</text><text x="588" y="651" fill="#6F6A73" font-family="Arial" font-size="10" letter-spacing="2">NODE.JS</text>
</svg>
