<svg width="1200" height="760" viewBox="0 0 1200 760" fill="none" xmlns="http://www.w3.org/2000/svg">
  <defs><linearGradient id="b" x1="0" y1="0" x2="1200" y2="760"><stop stop-color="#281A12"/><stop offset="1" stop-color="#0B0907"/></linearGradient><linearGradient id="g" x1="0" y1="0" x2="1" y2="1"><stop stop-color="#F2D58A"/><stop offset="1" stop-color="#A66A2C"/></linearGradient><filter id="s"><feDropShadow dx="0" dy="18" stdDeviation="20" flood-opacity=".45"/></filter></defs>
  <rect width="1200" height="760" fill="url(#b)"/><circle cx="930" cy="160" r="280" fill="#B47336" fill-opacity=".09"/>
  <rect x="105" y="78" width="990" height="604" rx="24" fill="#F4EEE3" filter="url(#s)"/><rect x="105" y="78" width="990" height="58" rx="24" fill="#EEE5D6"/><circle cx="139" cy="107" r="6" fill="#BD8B5B"/><circle cx="160" cy="107" r="6" fill="#D0B391"/><circle cx="181" cy="107" r="6" fill="#A59B89"/>
  <text x="155" y="193" fill="#302016" font-family="Georgia,serif" font-size="25" font-weight="700">NOIR ROAST</text><text x="755" y="192" fill="#6D5A4D" font-family="Arial,sans-serif" font-size="12" letter-spacing="2">SHOP  ORIGIN  STORY  CART (0)</text>
  <text x="155" y="295" fill="#302016" font-family="Georgia,serif" font-size="53">Coffee, crafted</text><text x="155" y="348" fill="#302016" font-family="Georgia,serif" font-size="53">without compromise.</text><text x="155" y="405" fill="#726357" font-family="Arial,sans-serif" font-size="16">Exceptional single-origin coffee for slower, better mornings.</text>
  <rect x="155" y="449" width="148" height="48" rx="24" fill="#302016"/><text x="229" y="479" text-anchor="middle" fill="#FFF" font-family="Arial,sans-serif" font-size="13" font-weight="700">SHOP COFFEE</text>
  <ellipse cx="822" cy="396" rx="178" ry="168" fill="#D6CAB9"/><path d="M767 284H887L870 520H784L767 284Z" fill="url(#g)"/><path d="M783 312H871V473H792L783 312Z" fill="#3B2418"/><text x="827" y="385" text-anchor="middle" fill="#E8C97B" font-family="Georgia,serif" font-size="22">NOIR</text><text x="827" y="411" text-anchor="middle" fill="#D9BE85" font-family="Arial,sans-serif" font-size="9" letter-spacing="3">ETHIOPIA</text>
  <circle cx="965" cy="550" r="46" fill="#302016"/><path d="M945 550H985M965 530V570" stroke="#EFD589" stroke-width="3"/>
</svg>
