<svg width="1200" height="760" viewBox="0 0 1200 760" fill="none" xmlns="http://www.w3.org/2000/svg">
  <defs><linearGradient id="b" x1="0" y1="0" x2="1200" y2="760"><stop stop-color="#121B2B"/><stop offset="1" stop-color="#080B11"/></linearGradient><filter id="s"><feDropShadow dx="0" dy="22" stdDeviation="25" flood-opacity=".5"/></filter></defs>
  <rect width="1200" height="760" fill="url(#b)"/><circle cx="960" cy="80" r="280" fill="#7C5CFC" fill-opacity=".12"/>
  <rect x="86" y="65" width="1028" height="630" rx="25" fill="#F7F8FC" filter="url(#s)"/><rect x="86" y="65" width="210" height="630" rx="25" fill="#111827"/><rect x="112" y="100" width="42" height="42" rx="12" fill="#7C5CFC"/><text x="133" y="127" text-anchor="middle" fill="white" font-family="Arial" font-size="18" font-weight="700">B</text><text x="168" y="126" fill="white" font-family="Arial" font-size="16" font-weight="700">BundleBoost</text>
  <rect x="108" y="180" width="166" height="43" rx="10" fill="#7C5CFC"/><text x="145" y="207" fill="white" font-family="Arial" font-size="12" font-weight="700">▦  Dashboard</text><text x="125" y="263" fill="#8691A7" font-family="Arial" font-size="12">Campaigns</text><text x="125" y="305" fill="#8691A7" font-family="Arial" font-size="12">Bundles</text><text x="125" y="347" fill="#8691A7" font-family="Arial" font-size="12">Analytics</text><text x="125" y="389" fill="#8691A7" font-family="Arial" font-size="12">Settings</text>
  <text x="337" y="128" fill="#141A26" font-family="Arial" font-size="24" font-weight="700">Campaign overview</text><text x="337" y="156" fill="#838B9B" font-family="Arial" font-size="12">Monitor your bundle and upsell performance</text><rect x="936" y="104" width="137" height="44" rx="10" fill="#7C5CFC"/><text x="1005" y="131" text-anchor="middle" fill="white" font-family="Arial" font-size="12" font-weight="700">+ New campaign</text>
  <rect x="337" y="191" width="215" height="110" rx="15" fill="white" stroke="#E4E7EE"/><text x="359" y="222" fill="#8991A0" font-family="Arial" font-size="11">TOTAL REVENUE</text><text x="359" y="265" fill="#131926" font-family="Arial" font-size="28" font-weight="700">$14,860</text><text x="477" y="263" fill="#17A673" font-family="Arial" font-size="11">+18.2%</text>
  <rect x="570" y="191" width="215" height="110" rx="15" fill="white" stroke="#E4E7EE"/><text x="592" y="222" fill="#8991A0" font-family="Arial" font-size="11">BUNDLE ORDERS</text><text x="592" y="265" fill="#131926" font-family="Arial" font-size="28" font-weight="700">1,284</text><text x="706" y="263" fill="#17A673" font-family="Arial" font-size="11">+9.6%</text>
  <rect x="803" y="191" width="270" height="110" rx="15" fill="#7C5CFC"/><text x="827" y="222" fill="#DDD6FE" font-family="Arial" font-size="11">CONVERSION RATE</text><text x="827" y="266" fill="white" font-family="Arial" font-size="28" font-weight="700">12.8%</text>
  <rect x="337" y="330" width="736" height="305" rx="16" fill="white" stroke="#E4E7EE"/><text x="361" y="370" fill="#141A26" font-family="Arial" font-size="15" font-weight="700">Revenue performance</text><path d="M376 572C450 560 470 492 537 515C615 542 651 425 728 466C817 514 845 380 930 414C982 435 1001 379 1034 376" stroke="#7C5CFC" stroke-width="5" stroke-linecap="round"/><path d="M376 572C450 560 470 492 537 515C615 542 651 425 728 466C817 514 845 380 930 414C982 435 1001 379 1034 376V599H376V572Z" fill="#7C5CFC" fill-opacity=".1"/><path d="M376 599H1034M376 528H1034M376 457H1034M376 386H1034" stroke="#EDF0F5"/>
</svg>
