<svg width="1200" height="760" viewBox="0 0 1200 760" fill="none" xmlns="http://www.w3.org/2000/svg">
  <defs><linearGradient id="b" x1="0" y1="0" x2="1200" y2="760"><stop stop-color="#0A2A29"/><stop offset="1" stop-color="#07100F"/></linearGradient><filter id="s"><feDropShadow dx="0" dy="20" stdDeviation="25" flood-opacity=".5"/></filter></defs><rect width="1200" height="760" fill="url(#b)"/><circle cx="220" cy="680" r="300" fill="#2CC6AD" fill-opacity=".08"/>
  <rect x="79" y="70" width="1042" height="620" rx="26" fill="#F5FAF9" filter="url(#s)"/><rect x="79" y="70" width="1042" height="65" rx="26" fill="#FFFFFF"/><circle cx="117" cy="102" r="18" fill="#1BAE99"/><path d="M109 102H125M117 94V110" stroke="white" stroke-width="3"/><text x="146" y="108" fill="#163B38" font-family="Arial" font-size="17" font-weight="700">HarmonyRenal</text><text x="883" y="106" fill="#82918F" font-family="Arial" font-size="11">DR. AMINA SHAH</text><circle cx="1066" cy="102" r="18" fill="#DCEEEA"/>
  <rect x="79" y="135" width="190" height="555" fill="#123C39"/><text x="113" y="187" fill="#90A8A5" font-family="Arial" font-size="10" letter-spacing="2">WORKSPACE</text><rect x="97" y="210" width="154" height="42" rx="9" fill="#1BAE99"/><text x="121" y="237" fill="white" font-family="Arial" font-size="12" font-weight="700">▦  Overview</text><text x="115" y="291" fill="#AFC0BE" font-family="Arial" font-size="12">Patients</text><text x="115" y="337" fill="#AFC0BE" font-family="Arial" font-size="12">Treatments</text><text x="115" y="383" fill="#AFC0BE" font-family="Arial" font-size="12">Facilities</text><text x="115" y="429" fill="#AFC0BE" font-family="Arial" font-size="12">Clinical records</text>
  <text x="310" y="186" fill="#153E3A" font-family="Arial" font-size="25" font-weight="700">Good morning, Dr. Shah</text><text x="310" y="213" fill="#81918E" font-family="Arial" font-size="12">Here is today’s clinical overview across all facilities.</text>
  <rect x="310" y="247" width="220" height="105" rx="14" fill="white" stroke="#DFEBE9"/><circle cx="347" cy="286" r="18" fill="#DCF5F0"/><text x="347" y="291" text-anchor="middle" fill="#159985" font-family="Arial" font-size="15">+</text><text x="379" y="279" fill="#83928F" font-family="Arial" font-size="10">ACTIVE PATIENTS</text><text x="379" y="315" fill="#153E3A" font-family="Arial" font-size="27" font-weight="700">248</text>
  <rect x="550" y="247" width="220" height="105" rx="14" fill="white" stroke="#DFEBE9"/><circle cx="587" cy="286" r="18" fill="#E8F0FF"/><text x="587" y="291" text-anchor="middle" fill="#3977DB" font-family="Arial" font-size="14">✓</text><text x="619" y="279" fill="#83928F" font-family="Arial" font-size="10">TODAY’S SESSIONS</text><text x="619" y="315" fill="#153E3A" font-family="Arial" font-size="27" font-weight="700">42</text>
  <rect x="790" y="247" width="286" height="105" rx="14" fill="#153E3A"/><text x="816" y="279" fill="#9CB8B4" font-family="Arial" font-size="10">TREATMENT COMPLETION</text><text x="816" y="317" fill="white" font-family="Arial" font-size="27" font-weight="700">94.6%</text><rect x="932" y="303" width="113" height="5" rx="3" fill="#42635F"/><rect x="932" y="303" width="104" height="5" rx="3" fill="#2ED3B7"/>
  <rect x="310" y="378" width="493" height="260" rx="14" fill="white" stroke="#DFEBE9"/><text x="334" y="414" fill="#153E3A" font-family="Arial" font-size="14" font-weight="700">Today’s treatment schedule</text><path d="M334 443H779M334 492H779M334 541H779M334 590H779" stroke="#E8EFEE"/><circle cx="355" cy="468" r="12" fill="#DCEEEA"/><text x="381" y="471" fill="#38524F" font-family="Arial" font-size="11">Ali Raza</text><text x="632" y="471" fill="#82918F" font-family="Arial" font-size="10">09:30 AM</text><rect x="709" y="455" width="58" height="24" rx="12" fill="#E1F7F1"/><text x="738" y="471" text-anchor="middle" fill="#14937F" font-family="Arial" font-size="9">ACTIVE</text>
  <rect x="823" y="378" width="253" height="260" rx="14" fill="white" stroke="#DFEBE9"/><text x="847" y="414" fill="#153E3A" font-family="Arial" font-size="14" font-weight="700">Facility capacity</text><circle cx="948" cy="513" r="65" stroke="#E7EFED" stroke-width="14"/><path d="M948 448A65 65 0 1 1 886 532" stroke="#1BAE99" stroke-width="14" stroke-linecap="round"/><text x="948" y="509" text-anchor="middle" fill="#153E3A" font-family="Arial" font-size="25" font-weight="700">82%</text><text x="948" y="530" text-anchor="middle" fill="#82918F" font-family="Arial" font-size="9">OCCUPIED</text>
</svg>
